<svg width="52" height="43" viewBox="0 0 52 43" fill="none" xmlns="http://www.w3.org/2000/svg">
<g clip-path="url(#clip0_448_1921)">
<path d="M21.198 16.6007L20.8856 16.4448C20.7502 16.7081 20.6808 17.0223 20.4853 17.1724C20.2897 17.3226 19.9739 17.3307 19.7089 17.333C18.0602 17.3468 16.4116 17.3411 14.7629 17.3399C14.1601 17.3399 14.0236 17.2417 13.7945 16.6469H9.00694V15.2609H13.8153V6.95892H9V5.58449H13.8003C13.916 4.95734 14.3313 4.85223 14.867 4.85801C16.4868 4.87764 18.1065 4.86494 19.7263 4.86494C20.5535 4.86494 20.7097 5.00123 20.8161 5.85822L25.3549 3.84855C25.23 3.33805 25.0692 2.85758 25.0079 2.36325C24.9796 2.08979 25.0484 1.8151 25.2022 1.5871C25.4035 1.31683 25.7356 1.36534 26.0352 1.51202C26.4899 1.73262 26.9493 1.94283 27.441 2.17383C27.7649 1.62406 28.0831 1.07775 28.407 0.534908C28.8189 -0.158081 29.3534 -0.173096 29.8093 0.499104C30.0997 0.927603 30.3878 1.36072 30.6909 1.8204C31.1537 1.51202 31.6038 1.22674 32.0399 0.926446C32.3488 0.712774 32.6612 0.597276 32.9956 0.847908C33.3057 1.0789 33.308 1.3919 33.2166 1.74533C32.8787 3.03198 32.5629 4.33711 32.2239 5.68844C32.4611 5.66072 32.6589 5.65033 32.8521 5.61221C33.7777 5.42972 34.5158 5.74734 35.0191 6.52234C35.5224 7.29733 35.4646 8.07925 34.9648 8.84039C34.9324 8.88774 34.8976 8.93394 34.8491 9.00324C35.5166 9.91799 35.5513 10.8512 34.8491 11.7914C35.2633 12.3388 35.4611 12.9302 35.3176 13.6197C35.2945 13.7352 35.4275 13.8992 35.5236 14.0112C38.8788 17.9382 37.7091 23.8979 33.0847 26.1952C29.6415 27.9057 23.9712 27.4345 21.6029 22.6667C20.7907 21.0312 20.4448 19.0123 21.198 16.6007ZM25.6997 5.21259C24.0973 5.92175 22.5262 6.61243 20.9619 7.32043C20.9094 7.35929 20.8663 7.40948 20.8358 7.46727C20.8054 7.52506 20.7884 7.58897 20.7861 7.65422C20.7768 9.95033 20.7745 12.2464 20.7861 14.5425C20.7968 14.6265 20.8259 14.707 20.8713 14.7784C20.9167 14.8499 20.9773 14.9105 21.0487 14.956C21.6422 15.2817 22.282 15.5335 22.8594 15.88C23.881 16.5037 24.9581 16.7081 26.1544 16.6619C28.031 16.5892 29.9134 16.6458 31.7935 16.6411C32.269 16.6411 32.5721 16.3582 32.5744 15.9482C32.5768 15.5381 32.2736 15.2679 31.7981 15.2552C31.6026 15.2552 31.4071 15.2552 31.2104 15.2552V13.8692H32.3465C32.6497 13.8692 32.9539 13.8796 33.2571 13.8692C33.6724 13.8495 33.9512 13.5689 33.9628 13.1935C33.9744 12.8181 33.6805 12.5005 33.242 12.4913C32.5687 12.4786 31.8941 12.4913 31.2219 12.4913V11.1053C31.8594 11.1053 32.4657 11.1053 33.0731 11.1053C33.6458 11.1053 33.9755 10.8374 33.964 10.395C33.9524 9.95264 33.6365 9.7228 33.0812 9.72049C32.4634 9.72049 31.8456 9.72049 31.2185 9.72049V8.33451C31.9242 8.33451 32.6068 8.34721 33.279 8.33451C33.7337 8.32296 34.0137 7.99725 33.9732 7.57453C33.9327 7.1518 33.5856 6.90695 33.1344 6.97625C31.0218 7.30349 28.9092 7.63112 26.7965 7.95914C25.9867 8.08387 25.1768 8.20284 24.3495 8.32758C24.279 7.84826 24.2153 7.41514 24.1505 6.97278L26.0572 6.66094C25.9369 6.15043 25.8224 5.69653 25.6997 5.21259ZM28.4267 18.0329C28.5598 18.5688 28.7055 18.6889 29.2158 18.7259C29.6747 18.7479 30.1133 18.9217 30.4625 19.2199C30.8116 19.5181 31.0515 19.9237 31.1444 20.3729C31.2416 20.8139 31.189 21.2747 30.9948 21.6825C30.8006 22.0903 30.4759 22.4219 30.0719 22.6251C29.9812 22.6604 29.9051 22.7252 29.856 22.809C29.8068 22.8929 29.7875 22.9909 29.8012 23.0871C29.8174 23.4706 29.8012 23.8552 29.8012 24.2317H28.4128C28.4128 23.824 28.3989 23.4475 28.4186 23.0767C28.4302 22.8457 28.3469 22.7302 28.1363 22.6147C27.4329 22.2405 27.0754 21.6364 27.0279 20.8187H28.3816C28.5794 21.3465 28.8826 21.5671 29.2632 21.4736C29.4257 21.4351 29.5689 21.3394 29.6664 21.204C29.764 21.0687 29.8093 20.9028 29.7942 20.7367C29.7329 20.3382 29.483 20.1454 29.0827 20.1107C28.0333 20.0218 27.3322 19.4616 27.095 18.5365C27.0534 18.3748 27.0245 18.2108 26.9863 18.0329C26.1833 18.0329 25.4001 17.9948 24.6237 18.0433C23.7815 18.0964 23.2111 17.4566 22.4695 17.2718C21.4964 20.0957 22.8559 23.3989 25.5667 24.8727C26.8035 25.5461 28.1317 25.6812 29.5108 25.6662C33.7522 25.6188 36.8055 21.8051 35.8741 17.6783C35.6446 16.6494 35.1569 15.6955 34.4568 14.9064L33.8587 15.2124C34.3354 16.8398 33.1252 18.1519 31.5366 18.0433C30.515 17.9763 29.4853 18.0329 28.4267 18.0329ZM15.2534 6.26593V15.9181H19.3688V6.26593H15.2534ZM31.4672 2.98925C31.2833 3.10474 31.1849 3.15787 31.0889 3.22024C30.4676 3.61987 30.1899 3.56674 29.7723 2.93958C29.5744 2.64506 29.3743 2.3517 29.1475 2.0156C28.8721 2.48452 28.6303 2.9084 28.3758 3.32535C28.1028 3.77232 27.7973 3.8601 27.3125 3.64528C27.1228 3.56096 26.9354 3.46972 26.6693 3.34498L27.4479 6.44033C28.5123 6.27864 29.5235 6.1308 30.5312 5.96333C30.5871 5.94362 30.6378 5.91142 30.6793 5.86918C30.7208 5.82694 30.7521 5.77579 30.7707 5.71963C31.0044 4.84646 31.2208 3.96867 31.4672 2.9904V2.98925Z" fill="#551BCC"/>
<path d="M27.3531 32.872C27.9096 32.0381 28.7172 31.8649 29.6381 31.8903C30.8367 31.9238 32.0388 31.9099 33.2386 31.8903C33.4406 31.8744 33.6297 31.7848 33.7697 31.6385C34.3482 30.9998 35.0574 30.599 35.9124 30.5332C37.9614 30.3634 39.8577 30.7445 41.4439 32.1605C41.4962 32.1957 41.5516 32.2263 41.6093 32.2518V31.7159C41.6093 30.6313 41.725 30.5124 42.8334 30.5124C44.3953 30.5124 45.9572 30.5228 47.5191 30.5124C48.049 30.5066 48.4759 30.5967 48.5743 31.2215H52.0012V32.574H48.5801V40.8991H51.9908V42.277H48.5963C48.4609 42.9238 48.0097 43.0058 47.4532 42.9989C45.8045 42.9781 44.1558 42.9931 42.5071 42.9908C41.8511 42.9908 41.6151 42.7598 41.6093 42.1119C41.6093 41.7504 41.6093 41.39 41.6093 41.0285C41.6011 40.9802 41.5903 40.9324 41.5769 40.8853C40.8943 40.8449 40.1885 40.7987 39.4944 40.7698C35.7249 40.585 31.9555 40.4013 28.1861 40.2189C26.785 40.1484 25.554 39.6414 24.5995 38.6111C23.0569 36.9518 21.5362 35.2686 20.0376 33.5615C19.5808 33.0358 19.3441 32.3548 19.3766 31.6596C19.4091 30.9644 19.7084 30.3084 20.2123 29.8275C21.2454 28.8608 22.7507 28.9127 23.8579 29.8968C24.9906 30.9051 26.166 31.8649 27.3531 32.872ZM41.5839 39.4797C41.5954 39.3826 41.6093 39.3145 41.6105 39.2487C41.6105 38.051 41.563 36.8498 41.6255 35.6544C41.681 34.623 41.172 33.8641 40.5183 33.2289C39.2306 31.9677 37.5877 31.7678 35.8777 31.9492C35.6298 31.976 35.3925 32.064 35.1871 32.2051C34.9817 32.3462 34.8147 32.5361 34.701 32.7577C34.4696 33.1919 34.1353 33.3109 33.6713 33.3051C32.1962 33.2866 30.721 33.2959 29.2471 33.2994C28.7322 33.2994 28.4245 33.565 28.4221 33.9923C28.4198 34.4197 28.7299 34.6853 29.2401 34.6853C30.6563 34.6853 32.0735 34.6853 33.4908 34.6853H33.9386V36.0713C32.2702 36.0713 30.6354 36.099 29.0029 36.0609C28.1514 36.0401 27.5556 35.562 27.1888 34.7904C27.0899 34.571 26.9465 34.3743 26.7677 34.2129C25.495 33.1215 24.2061 32.0531 22.9335 30.9617C22.333 30.4477 21.6932 30.3842 21.1864 30.8462C20.9342 31.0806 20.7839 31.4042 20.7677 31.7479C20.7515 32.0915 20.8706 32.4279 21.0997 32.6849C22.6037 34.3677 24.1078 36.0447 25.6385 37.6952C26.3477 38.4587 27.2802 38.7948 28.3169 38.8502C31.6389 39.0157 34.9598 39.1813 38.2795 39.3468C39.3717 39.3803 40.4662 39.4288 41.5815 39.4797H41.5839ZM43.0312 31.918V41.569H47.1431V31.918H43.0312Z" fill="#551BCC"/>
</g>
<path d="M52 25.5088C52 34.6166 40.3594 42 26 42C11.6406 42 0 34.6166 0 25.5088C0 16.4009 21.8454 2 36.2048 2C50.5642 2 52 16.4009 52 25.5088Z" fill="#6226FA" fill-opacity="0.05"/>
<defs>
<clipPath id="clip0_448_1921">
<rect width="43" height="43" fill="white" transform="translate(9)"/>
</clipPath>
</defs>
</svg>
