<svg width="52" height="47" viewBox="0 0 52 47" fill="none" xmlns="http://www.w3.org/2000/svg">
<path d="M52 29.5088C52 38.6166 40.3594 46 26 46C11.6406 46 0 38.6166 0 29.5088C0 20.4009 21.8454 6 36.2048 6C50.5642 6 52 20.4009 52 29.5088Z" fill="#6226FA" fill-opacity="0.05"/>
<g clip-path="url(#clip0_448_1923)">
<path d="M4.99989 21.4802C5.27773 21.0335 5.50172 20.5402 5.84565 20.1535C6.23609 19.7153 6.81258 19.5819 7.39518 19.5782C8.68034 19.5709 9.96549 19.5574 11.2494 19.5782C12.176 19.5966 12.9018 20.0164 13.3302 20.8499C13.4648 21.1094 13.6276 21.1461 13.8711 21.1424C15.1122 21.1192 16.3533 21.1302 17.543 21.5684C18.0693 21.7642 18.5797 22.0029 19.117 22.2317C19.6568 16.9883 22.5123 13.2026 26.8035 10.1806C26.5293 10.1806 26.3592 10.1892 26.1915 10.1806C25.6934 10.1525 25.3678 9.82447 25.3825 9.37038C25.3972 8.9163 25.7105 8.62867 26.1989 8.62255C27.1144 8.61153 28.0348 8.62255 29.0042 8.62255C28.943 8.38877 28.9001 8.19906 28.8451 8.01057C28.5121 6.8833 28.1682 5.75848 27.8439 4.62877C27.3922 3.05721 28.4362 1.63007 30.0604 1.55174C30.2737 1.53253 30.4715 1.43273 30.6137 1.27268C31.1669 0.582364 31.9013 0.220072 32.7287 -0.00146484H33.7384C34.5218 0.234759 35.2586 0.55911 35.7555 1.24697C35.8234 1.35288 35.9183 1.43883 36.0303 1.49604C36.1424 1.55325 36.2676 1.57965 36.3932 1.57255C37.5144 1.6007 38.4274 2.35221 38.6171 3.45377C38.6773 3.87373 38.6481 4.30166 38.5315 4.70955C38.1851 6.0045 37.7848 7.27986 37.3907 8.6201H37.9378C38.7016 8.6201 39.4666 8.61153 40.2315 8.6201C40.7101 8.62866 41.0271 8.94934 41.0308 9.3863C41.0345 9.82325 40.7199 10.1427 40.245 10.1757C40.0712 10.188 39.8949 10.1757 39.6428 10.1757C44.7565 13.8843 47.8678 18.5158 47.2093 25.108C47.5496 24.9979 47.8482 24.8963 48.1493 24.8033C49.6805 24.3394 51.257 25.1019 51.8126 26.5707C51.8763 26.7396 51.935 26.9085 51.9999 27.0786V28.0884C51.7123 29.2719 50.924 30.0332 49.9742 30.4739C50.5067 31.5999 51.0599 32.6366 51.4871 33.7235C51.7551 34.404 51.8359 35.1665 51.9999 35.8923V37.6365C51.9717 37.7662 51.935 37.896 51.9154 38.0269C51.3622 41.8763 49.3145 44.6228 45.7589 46.1736C44.8091 46.5885 43.7418 46.7317 42.7284 46.9998H40.8007C40.7498 46.9691 40.695 46.9452 40.6379 46.9288C36.545 46.3192 33.7454 44.088 32.2391 40.2349C32.1399 39.9816 31.9943 39.9387 31.7617 39.9387C25.615 39.9436 19.4683 39.9473 13.3216 39.9498C13.1438 39.9543 12.9724 40.0166 12.8332 40.1272C12.3779 40.5219 11.7956 40.7392 11.1931 40.7392C9.92388 40.7392 8.65463 40.7539 7.38539 40.7392C6.26546 40.7233 5.43562 40.0905 5.08679 39.0355C5.05972 38.9666 5.02908 38.8992 4.995 38.8335L4.99989 21.4802ZM32.5145 29.7211C33.326 29.8056 34.8755 29.3429 35.4752 28.8644C37.0211 27.6404 38.7677 26.8497 40.7383 26.7139C42.0687 26.6221 43.3796 26.5327 44.6158 25.9795C44.7853 25.9033 44.9632 25.847 45.1457 25.8118C45.4138 25.7616 45.5203 25.6074 45.5594 25.3504C45.8446 23.4655 45.8373 21.5941 45.2351 19.7691C43.7455 15.2478 40.6416 12.2173 36.3822 10.2737C36.2125 10.209 36.0312 10.1802 35.8498 10.1892C34.1056 10.1892 32.3615 10.1794 30.6173 10.1892C30.3605 10.1913 30.1067 10.2446 29.8707 10.3459C27.2478 11.4857 24.9749 13.302 23.2846 15.6089C21.6714 17.7888 20.7143 20.2098 20.6751 22.9527C20.6751 23.2574 20.751 23.4643 21.0423 23.5487C21.8428 23.7862 22.6335 24.1411 23.4523 24.2084C24.8806 24.3308 26.3249 24.2562 27.7618 24.277C28.1591 24.2752 28.556 24.303 28.9491 24.3602C30.9894 24.7103 33.2476 26.8816 32.5145 29.7211ZM13.6386 38.3378H31.7532C31.386 35.8116 31.916 33.5068 33.2219 31.3527C33.1649 31.3371 33.1068 31.3256 33.0481 31.3184C30.7226 31.3184 28.3971 31.3049 26.0716 31.3368C25.4363 31.3453 24.7668 31.3955 24.1793 31.6097C23.385 31.8973 22.653 32.3575 21.9003 32.7553C21.4817 32.9756 21.0435 32.9047 20.7987 32.5509C20.6844 32.3848 20.6401 32.1803 20.6754 31.9817C20.7106 31.7831 20.8227 31.6064 20.9872 31.4898C22.1769 30.6097 23.4817 29.939 24.9639 29.8497C26.6407 29.7481 28.3249 29.7787 30.0066 29.7591C30.7911 29.7505 31.0445 29.5559 31.058 28.764C31.0731 28.3544 30.9935 27.9469 30.8254 27.5731C30.2771 26.4715 29.3469 25.8889 28.107 25.8596C27.1743 25.8387 26.2405 25.8669 25.3078 25.8498C24.451 25.8326 23.5943 25.8498 22.7461 25.7396C21.27 25.5548 19.9922 24.889 18.8221 23.9808C17.2909 22.7948 15.5174 22.594 13.6386 22.7458V38.3378ZM50.4345 36.8299C50.4342 34.5468 49.5301 32.3567 47.9198 30.7382C46.3096 29.1196 44.1241 28.2044 41.841 28.1924C39.5583 28.1917 37.3679 29.0938 35.7477 30.7018C34.1276 32.3098 33.209 34.4934 33.1926 36.776C33.1877 39.0666 34.0926 41.2654 35.7084 42.889C37.3242 44.5126 39.5186 45.4282 41.8092 45.4343C44.0917 45.4295 46.2796 44.5221 47.8955 42.9101C49.5114 41.2981 50.4241 39.1123 50.4345 36.8299ZM12.0572 30.1875C12.0572 27.5119 12.0572 24.8367 12.0572 22.162C12.0572 21.4349 11.7818 21.1498 11.0695 21.1449C9.89369 21.1375 8.71664 21.1375 7.53838 21.1449C6.84317 21.1449 6.56656 21.4313 6.56656 22.124C6.56656 27.4744 6.56656 32.8243 6.56656 38.1738C6.56656 38.8923 6.84317 39.1676 7.57265 39.1713C8.70359 39.1713 9.83453 39.1713 10.9655 39.1713C11.8039 39.1713 12.0585 38.9143 12.0585 38.0698C12.0585 35.444 12.0581 32.8165 12.0572 30.1875ZM35.7457 8.6201C36.2035 7.08158 36.6637 5.5602 37.1006 4.04127C37.2035 3.68143 36.9489 3.31424 36.5792 3.1845C36.2965 3.08291 36.0958 3.09515 36.0028 3.45622C35.8804 3.92744 35.709 4.38765 35.5474 4.84786C35.3651 5.36315 34.9685 5.58223 34.5267 5.43658C34.0848 5.29093 33.8951 4.8809 34.0591 4.35705C34.2231 3.8332 34.4324 3.28976 34.5756 2.7451C34.5977 2.64867 34.6001 2.54876 34.5827 2.45138C34.5652 2.354 34.5283 2.26115 34.474 2.17841C33.8523 1.39507 32.6565 1.37549 31.9686 2.1013C31.7691 2.31059 31.7042 2.5101 31.8132 2.79528C32.0139 3.32281 32.1901 3.8589 32.3529 4.39989C32.5035 4.89926 32.3125 5.28604 31.8768 5.43536C31.4411 5.58468 31.0543 5.37538 30.8768 4.88947C30.714 4.44518 30.5733 3.99354 30.424 3.54312C30.2746 3.0927 30.0249 3.00213 29.6198 3.28609C29.4828 3.37428 29.3794 3.50602 29.3263 3.6601C29.2733 3.81419 29.2736 3.98164 29.3273 4.13551C29.7353 5.55694 30.1584 6.97469 30.5965 8.38877C30.6204 8.44453 30.6574 8.49376 30.7042 8.5323C30.7511 8.57085 30.8065 8.5976 30.8658 8.61031C32.4839 8.62377 34.102 8.6201 35.7457 8.6201ZM48.8555 29.3123C49.1285 29.1471 49.4749 28.9537 49.8041 28.7346C50.0728 28.5678 50.2733 28.3108 50.37 28.0097C50.4666 27.7086 50.453 27.3829 50.3316 27.0909C50.0868 26.4887 49.4663 26.0909 48.8188 26.2684C47.7454 26.5621 46.6965 26.9452 45.6684 27.2793C46.7222 27.9525 47.754 28.611 48.8555 29.3123Z" fill="#551BCC"/>
<path d="M32.3861 23.4949C32.1107 23.4949 31.85 23.5121 31.593 23.4949C31.493 23.4923 31.3945 23.4697 31.3032 23.4287C31.212 23.3876 31.1298 23.3288 31.0614 23.2557C30.9931 23.1826 30.94 23.0966 30.9052 23.0028C30.8704 22.909 30.8545 22.8092 30.8586 22.7092C30.8558 22.6093 30.8732 22.5099 30.9098 22.4169C30.9463 22.3239 31.0013 22.2393 31.0714 22.1681C31.1414 22.0969 31.2252 22.0406 31.3175 22.0025C31.4099 21.9644 31.509 21.9454 31.6089 21.9466C32.1132 21.9258 32.6175 21.9466 33.1217 21.9356C33.626 21.9246 33.9712 21.6039 33.9785 21.1658C33.9858 20.7276 33.6566 20.4179 33.145 20.3739C31.9847 20.2747 31.1291 19.5771 30.9015 18.5379C30.6677 17.4841 31.1463 16.4878 32.1377 15.9162C32.2773 15.8216 32.3792 15.6807 32.4253 15.5184C32.5306 15.1512 32.757 14.9297 33.1254 14.8905C33.4938 14.8514 33.7827 15.0129 33.8904 15.3483C33.9895 15.6604 34.1694 15.7032 34.435 15.6739C34.4958 15.6696 34.5567 15.6696 34.6174 15.6739C35.1939 15.6861 35.5525 15.9909 35.5452 16.4609C35.5378 16.9309 35.178 17.2295 34.5978 17.2393C34.1707 17.2393 33.7411 17.2393 33.3139 17.2393C32.7472 17.2479 32.4314 17.5233 32.4253 18.0018C32.4192 18.4804 32.7239 18.7607 33.2906 18.806C34.4375 18.9002 35.2661 19.6028 35.4864 20.6725C35.589 21.1622 35.5316 21.6718 35.3227 22.1264C35.1138 22.581 34.7645 22.9564 34.3261 23.1975C34.2037 23.2685 34.0201 23.3603 34.0005 23.4668C33.9161 23.927 33.708 24.2501 33.2111 24.266C32.7142 24.282 32.4951 23.9539 32.3861 23.4949Z" fill="#551BCC"/>
<path d="M40.119 39.5179C40.2414 39.3515 40.3418 39.2352 40.4274 39.1128C41.9182 36.9855 43.4094 34.8575 44.901 32.7286C44.984 32.5999 45.0761 32.4772 45.1764 32.3614C45.3011 32.2246 45.4706 32.1371 45.6543 32.1146C45.838 32.0921 46.0237 32.1363 46.1776 32.239C46.3375 32.3468 46.4519 32.51 46.4987 32.6971C46.5455 32.8843 46.5213 33.0821 46.431 33.2525C46.3721 33.3596 46.3054 33.4623 46.2315 33.5597C44.5179 36.0133 42.8007 38.4673 41.0798 40.9218C40.5413 41.6904 40.1337 41.721 39.4617 41.0442C38.7898 40.3673 38.1411 39.726 37.4851 39.0638C37.0665 38.6428 37.0199 38.2071 37.3467 37.857C37.6735 37.5069 38.168 37.5412 38.5927 37.9635C39.097 38.469 39.5939 38.983 40.119 39.5179Z" fill="#551BCC"/>
</g>
<defs>
<clipPath id="clip0_448_1923">
<rect width="47" height="47" fill="white" transform="translate(5)"/>
</clipPath>
</defs>
</svg>
