<svg width="52" height="45" viewBox="0 0 52 45" fill="none" xmlns="http://www.w3.org/2000/svg">
<path d="M52 28.5088C52 37.6166 40.3594 45 26 45C11.6406 45 0 37.6166 0 28.5088C0 19.4009 21.8454 5 36.2048 5C50.5642 5 52 19.4009 52 28.5088Z" fill="#6226FA" fill-opacity="0.05"/>
<g clip-path="url(#clip0_448_1922)">
<path d="M8.6433 44.0455C7.51899 43.661 7.11312 42.8639 7.11537 41.6845C7.13785 31.3761 7.14235 21.0673 7.12886 10.7582C7.12886 9.73283 7.60444 9.02227 8.47016 8.75806C8.61585 8.71223 8.76721 8.68688 8.91988 8.68273C10.1398 8.67486 11.3607 8.65687 12.5806 8.6906C12.7059 8.70817 12.8262 8.75175 12.9336 8.81855C13.0411 8.88536 13.1334 8.97389 13.2046 9.07848C13.2934 9.21228 13.2406 9.55744 13.1203 9.67886C12.9337 9.83765 12.6974 9.92597 12.4524 9.92846C11.4282 9.95432 10.404 9.9397 9.38084 9.9397C8.54436 9.9397 8.39145 10.0904 8.39145 10.9089V41.8351C8.39145 42.6075 8.56347 42.7829 9.32013 42.7829H30.1906C30.9304 42.7829 31.1137 42.6008 31.1137 41.8711C31.1137 37.2285 31.1137 32.5859 31.1137 27.9432V27.4654H16.8485C15.4454 27.4654 14.7022 26.7177 14.7022 25.3056V3.08931C14.7022 1.70753 15.4532 0.953125 16.8384 0.953125H35.3096C36.6644 0.953125 37.4278 1.71091 37.4289 3.05445C37.4289 5.00325 37.4289 6.95205 37.4289 8.90085C37.4289 8.98517 37.4289 9.07062 37.4289 9.15381C37.3986 9.52034 37.1523 9.77331 36.8195 9.78343C36.7351 9.7865 36.6508 9.77231 36.572 9.74173C36.4932 9.71115 36.4215 9.66483 36.3612 9.60559C36.3009 9.54634 36.2533 9.47542 36.2213 9.39717C36.1894 9.31891 36.1737 9.23496 36.1753 9.15044C36.1584 8.5748 36.1697 8.00028 36.1697 7.42463C36.1697 5.96603 36.1697 4.50743 36.1697 3.04883C36.1697 2.42484 35.9606 2.21347 35.3411 2.21347H16.79C16.193 2.21347 15.9783 2.42821 15.9783 3.02297C15.9783 10.4704 15.9783 17.9182 15.9783 25.3663C15.9783 25.988 16.1885 26.1972 16.8114 26.1972H35.3253C35.9729 26.1972 36.1742 25.9925 36.1742 25.3393C36.1742 20.8788 36.1742 16.4191 36.1742 11.9601C36.1742 11.2293 36.3563 11.0505 37.0984 11.0505C38.2058 11.0505 39.3144 11.0505 40.4218 11.0505C40.9199 11.0505 41.2088 11.2754 41.2201 11.661C41.2313 12.0467 40.9322 12.3097 40.4184 12.3109C39.4403 12.3109 38.461 12.3109 37.4593 12.3109V14.8417H38.0214C38.8489 14.8417 39.6764 14.8417 40.5039 14.8417C40.9536 14.8417 41.2347 15.1126 41.2223 15.4893C41.2099 15.8659 40.9367 16.0964 40.5095 16.0998C39.4976 16.1065 38.4948 16.0998 37.4638 16.0998V18.6295H37.8494C38.7185 18.6295 39.5887 18.6295 40.4578 18.6295C40.939 18.6295 41.2313 18.8847 41.2223 19.2726C41.2133 19.6605 40.9311 19.8864 40.4713 19.8887C39.4785 19.8887 38.4846 19.8887 37.4649 19.8887V22.4139H40.1171C40.2565 22.4139 40.3971 22.4139 40.5376 22.4139C40.9547 22.433 41.2291 22.6905 41.2223 23.0536C41.2156 23.4168 40.9424 23.6686 40.5185 23.6731C39.6629 23.681 38.8073 23.6731 37.9517 23.6731H37.4312V26.1983H40.0171C40.2269 26.1885 40.4371 26.1912 40.6467 26.2062C40.9997 26.2489 41.2088 26.4625 41.2201 26.8189C41.2313 27.1753 41.0154 27.3889 40.6669 27.4508C40.5411 27.4645 40.4143 27.4675 40.288 27.4598H32.4123V29.9906H40.2644C40.3903 29.9844 40.5165 29.9866 40.6422 29.9973C40.9941 30.0445 41.2043 30.2503 41.2234 30.6067C41.2448 30.944 40.9873 31.2105 40.6298 31.2476C40.5036 31.2543 40.3771 31.2543 40.2509 31.2476H32.4145V35.2029H42.8706C43.5687 35.2029 43.7565 35.0106 43.7565 34.2955V7.07722C43.7565 6.32843 43.5856 6.15416 42.8492 6.15304C41.7687 6.15304 40.6894 6.15304 39.6089 6.15304C39.483 6.16003 39.3567 6.15286 39.2323 6.13168C38.8871 6.05298 38.6881 5.82699 38.7174 5.46946C38.7443 5.13892 38.9422 4.90731 39.2874 4.90731C40.6613 4.89831 42.0374 4.87246 43.4091 4.92867C44.2647 4.96352 44.9573 5.77977 45.0135 6.66348C45.0225 6.80289 45.0135 6.94343 45.0135 7.08397C45.0135 16.1451 45.0135 25.2059 45.0135 34.2663C45.0135 35.7549 44.2894 36.4745 42.7885 36.4745H32.4179V40.2611H39.1052C39.7596 40.2611 39.9608 40.0587 39.9642 39.4123C39.9642 39.075 39.9552 38.7377 39.9642 38.4004C39.9788 38.008 40.2341 37.7438 40.5815 37.7382C40.666 37.7365 40.75 37.7519 40.8283 37.7837C40.9067 37.8154 40.9777 37.8627 41.0373 37.9228C41.0968 37.9828 41.1435 38.0543 41.1745 38.1329C41.2055 38.2115 41.2203 38.2957 41.2178 38.3801C41.2336 38.8422 41.2426 39.3077 41.2178 39.7687C41.156 40.7805 40.3274 41.517 39.2638 41.5203C37.1456 41.5271 35.0274 41.5203 32.9103 41.5203H32.3796C32.5258 42.7571 32.0851 43.6408 30.8765 44.0455H8.6433Z" fill="#551BCC"/>
<path d="M26.0318 24.9427H18.1234C17.4162 24.9427 17.224 24.7527 17.2296 24.0433C17.242 23.1045 17.215 22.1612 17.3061 21.2325C17.4444 19.8102 18.2213 18.7815 19.5075 18.1744C20.1753 17.8596 20.887 17.6347 21.5751 17.357C22.0821 17.1535 22.5993 16.9545 22.8995 16.4486C23.0884 16.1326 23.1322 15.8864 22.7646 15.6031C21.6369 14.7171 20.9095 13.5377 20.8499 12.0975C20.7847 10.6359 20.7206 9.13384 20.9623 7.70259C21.403 5.15492 23.8192 3.49207 26.513 3.6461C28.9112 3.78439 31.0608 5.80027 31.2722 8.25575C31.3803 9.59621 31.3754 10.9434 31.2576 12.283C31.1452 13.6693 30.411 14.7936 29.3137 15.6458C29.0337 15.8628 28.9899 16.0764 29.1686 16.3092C29.3727 16.6035 29.6301 16.8571 29.9275 17.0568C30.3323 17.2952 30.7977 17.4323 31.2396 17.6077C31.6421 17.7685 32.0547 17.9068 32.4505 18.0844C34.047 18.8017 34.8228 20.0745 34.888 21.7946C34.9183 22.5817 34.9003 23.3687 34.897 24.1557C34.897 24.7178 34.6721 24.9427 34.1099 24.9427C31.4161 24.9427 28.7234 24.9427 26.0318 24.9427ZM18.5518 23.6498H33.6332C33.6332 23.046 33.6422 22.4726 33.6332 21.8992C33.6074 20.5703 33.0048 19.6315 31.7455 19.1469C31.171 18.922 30.592 18.7185 30.0163 18.4982C29.0416 18.1249 28.2175 17.5807 27.87 16.4834C26.7097 16.8797 25.451 16.8821 24.2891 16.4902C23.736 17.6347 23.2559 18.0653 22.0304 18.5342C21.3783 18.7849 20.7127 19.0075 20.0752 19.2919C19.1893 19.6877 18.6429 20.3859 18.5642 21.3584C18.5023 22.1106 18.5518 22.8684 18.5518 23.6486V23.6498ZM30.1321 10.2222H30.0816C30.0816 9.77244 30.095 9.32272 30.0816 8.873C30.0096 6.71883 28.3704 4.99189 26.3253 4.90532C24.0766 4.81088 22.2777 6.31407 22.0776 8.55594C21.9809 9.65977 21.9809 10.7699 22.0776 11.8738C22.2541 13.8739 23.8484 15.3985 25.7519 15.5131C27.7756 15.6335 29.5351 14.3619 29.9579 12.3943C30.1142 11.6894 30.0838 10.9462 30.1366 10.221L30.1321 10.2222Z" fill="#551BCC"/>
</g>
<defs>
<clipPath id="clip0_448_1922">
<rect width="37.8846" height="43.089" fill="white" transform="translate(7.11536 0.955566)"/>
</clipPath>
</defs>
</svg>
