<svg width="52" height="43" viewBox="0 0 52 43" fill="none" xmlns="http://www.w3.org/2000/svg">
<path d="M52 26.5088C52 35.6166 40.3594 43 26 43C11.6406 43 0 35.6166 0 26.5088C0 17.4009 21.8454 3 36.2048 3C50.5642 3 52 17.4009 52 26.5088Z" fill="#6226FA" fill-opacity="0.05"/>
<path d="M12.4145 38C11.4584 38 10.6618 37.9868 9.90701 37.9593C8.15336 37.895 6.63613 36.6212 6.13103 34.7895C6.12441 34.7618 6.11934 34.7337 6.11583 34.7054C6.1048 34.5787 6.0652 34.4562 6 34.347V33.0883C6.15191 32.6618 6.26205 32.2249 6.36839 31.8022C6.46333 31.4448 6.55163 31.0741 6.66747 30.7223C7.12728 29.3561 7.73737 28.0447 8.48662 26.812C9.61839 24.9331 11.0673 23.2628 12.7696 21.8748C14.4933 20.4543 16.4588 19.3531 18.5727 18.6236C18.6771 18.5877 18.7863 18.5461 18.9069 18.496C18.9738 18.4676 19.032 18.4223 19.0759 18.3645L19.0873 18.3513L19.3123 18.1158L19.0797 17.8879C18.9002 17.7111 18.7113 17.5484 18.5271 17.3905C18.2963 17.2005 18.0766 16.9975 17.8691 16.7825C15.7414 14.4959 14.8366 11.7923 15.1793 8.74443C15.4091 6.70844 16.2456 4.87577 17.6669 3.29748C19.0882 1.71919 20.8798 0.694106 23.0199 0.21939H23.055H23.1187L23.1832 0.214663L23.2421 0.187238C23.3417 0.150671 23.4465 0.130238 23.5526 0.126717C23.7392 0.117994 23.9227 0.0750362 24.0937 0H26.0591C26.3294 0.103438 26.6129 0.168691 26.9013 0.193859C27.0554 0.211393 27.2085 0.237279 27.3599 0.271401C29.2464 0.744226 30.7959 1.61233 32.0948 2.93719C33.5968 4.47009 34.495 6.12592 34.8397 8.0002C35.3799 10.9383 34.7552 13.5966 32.9825 15.9021C32.3891 16.6746 31.6789 17.3309 31.0637 17.8718L30.7637 18.1347L31.0779 18.3806C31.2457 18.5033 31.436 18.5919 31.6381 18.6416C31.697 18.6596 31.753 18.6766 31.8024 18.6955C32.467 18.9489 32.7908 19.5759 32.5838 20.1849C32.411 20.6927 32.0037 20.9953 31.4919 20.9953C31.3541 20.9947 31.2171 20.9736 31.0855 20.9329C30.8833 20.8724 30.682 20.809 30.4798 20.7438C29.7845 20.5103 29.0751 20.3208 28.3558 20.1764C27.2931 19.9752 26.2142 19.8698 25.1325 19.8615C24.6809 19.8611 24.2296 19.8844 23.7804 19.9315C23.7384 19.9336 23.6962 19.9336 23.6542 19.9315H23.5393H23.4092H23.3798H23.3608C19.4414 20.392 16.0281 21.9892 13.214 24.673C11.8047 26.032 10.6421 27.6237 9.77788 29.3776C9.21675 30.5001 8.77716 31.7748 8.4325 33.2746C8.31424 33.7539 8.38028 34.2598 8.61765 34.6931C9.0525 35.5111 9.84529 35.6122 10.4036 35.617C11.0843 35.6226 11.7565 35.6226 12.2664 35.6226H13.9403C14.491 35.6226 15.042 35.6226 15.5933 35.6226C15.7712 35.6187 15.9478 35.6537 16.1107 35.7251C16.2736 35.7965 16.4188 35.9026 16.5361 36.0359C16.6484 36.1722 16.7292 36.3315 16.7725 36.5025C16.8158 36.6735 16.8207 36.852 16.7867 37.025C16.7013 37.5518 16.2351 37.9707 15.7243 37.9707L14.7891 37.9811C14.0153 37.9905 13.2054 38 12.4145 38ZM25.1049 2.3594C24.3995 2.3594 23.7273 2.48233 23.0437 2.61945H23.0237L23.0047 2.62607C21.2615 3.20386 19.9503 4.10128 18.9952 5.36846C17.7666 7.00065 17.2605 8.84939 17.4922 10.8655C17.6621 12.3407 18.284 13.7025 19.3408 14.9053C20.3681 16.0836 21.6688 16.8732 23.3199 17.3271L23.3418 17.3328H23.3646C23.9785 17.4255 24.598 17.477 25.2189 17.487C25.6358 17.4895 26.0521 17.454 26.4626 17.381C27.4437 17.2003 28.3786 16.8262 29.2124 16.2805C30.0462 15.7349 30.7622 15.0288 31.3181 14.2037C32.4613 12.5327 32.9094 10.4806 32.5296 8.56853C32.2101 6.88341 31.3298 5.35469 30.0307 4.22914C28.7317 3.1036 27.0897 2.4469 25.3698 2.36507C25.2834 2.36129 25.1942 2.3594 25.1049 2.3594Z" fill="#551BCC"/>
<path d="M36.9554 38.0002C36.106 38.0002 35.3273 37.9859 34.5685 37.9573C33.0188 37.8963 31.8994 37.0765 31.2426 35.5207C31.0146 34.9503 30.8331 34.3621 30.6999 33.7619C30.5432 33.1213 30.8726 32.5007 31.4662 32.3186C31.5886 32.2806 31.7158 32.2611 31.8438 32.2604C32.0858 32.2605 32.3215 32.3384 32.5166 32.4829C32.7118 32.6274 32.8563 32.831 32.9291 33.0641C33.0131 33.3024 33.0867 33.5522 33.1585 33.7943C33.2302 34.0364 33.3067 34.2967 33.3944 34.5464C33.6417 35.2547 34.124 35.5998 34.8686 35.6017H37.6151C38.1927 35.6017 38.7709 35.6017 39.3498 35.6017C40.2124 35.6017 40.5928 35.1136 40.7655 34.7047C41.4328 33.0898 41.7093 31.6951 41.6395 30.3148C41.5646 29.0564 41.2536 27.8238 40.723 26.6827C40.6205 26.4413 40.4489 26.2363 40.2303 26.094C40.0118 25.9517 39.7561 25.8785 39.4961 25.8839C38.8987 25.8839 38.2691 25.8781 37.5028 25.8781H35.7492H34.711C34.1315 25.8781 33.6927 26.2032 33.4756 26.7943C33.3246 27.2042 33.1925 27.6255 33.0745 28.0335L33.0169 28.2242C32.8008 28.9344 32.4233 29.2242 31.7126 29.2242C30.2082 29.2242 28.7063 29.221 27.2069 29.2147H26.0243H24.8983C24.2377 29.2147 23.577 29.2147 22.9164 29.2147C22.5634 29.2147 22.2095 29.2147 21.8565 29.2147H21.8404C21.5922 29.2147 21.2317 29.2566 20.9703 29.6141C20.9372 29.6566 20.9012 29.6967 20.8627 29.7342C20.8152 29.7811 20.7701 29.8304 20.7277 29.882C20.6727 29.9415 20.6127 29.996 20.5484 30.045C20.3521 30.207 20.0821 30.4263 20.1322 30.7847C20.1699 31.0498 20.3662 31.2233 20.5399 31.3777C20.613 31.4372 20.68 31.504 20.74 31.5769C21.1836 32.1928 21.7782 32.2633 22.184 32.2633H22.3171C22.6162 32.2519 22.9428 32.2461 23.3165 32.2461C23.6554 32.2461 24.0008 32.2461 24.3349 32.2547C24.618 32.2547 24.9087 32.2623 25.1956 32.2643H25.2089L25.3731 32.2576C25.4797 32.2519 25.5807 32.2471 25.6798 32.2471C25.8257 32.2432 25.9713 32.2608 26.1121 32.2995C26.3853 32.3737 26.6227 32.5453 26.7804 32.7826C26.9381 33.0198 27.0055 33.3068 26.97 33.5903C26.9343 33.867 26.8038 34.1224 26.6013 34.3121C26.3988 34.5019 26.1369 34.6141 25.861 34.6294C25.811 34.6294 25.76 34.6294 25.7091 34.6294C25.6147 34.6294 25.5156 34.6294 25.4193 34.6237L25.206 34.6179H24.1999C23.3354 34.6179 22.4712 34.6195 21.6073 34.6227H20.8768C20.7249 34.6222 20.5747 34.5903 20.4354 34.529C20.2962 34.4677 20.1708 34.3782 20.067 34.2662L19.5687 33.7571C18.8571 33.0317 18.1219 32.2824 17.4169 31.5312C16.9799 31.066 16.9714 30.4187 17.397 29.9582C18.171 29.1203 18.9826 28.289 19.7669 27.4844L20.0869 27.1565C20.1855 27.0566 20.3035 26.9784 20.4334 26.9265C20.5632 26.8747 20.7023 26.8504 20.8419 26.8553H21.4724C22.4558 26.8553 23.4396 26.8553 24.4236 26.8553H26.0281L27.255 26.8495C27.8704 26.8495 28.486 26.8476 29.102 26.8438C29.5211 26.8438 29.9401 26.8457 30.3592 26.8495H30.3743C30.7943 26.8495 31.05 26.6589 31.1784 26.2471C31.5559 25.0173 32.293 24.2003 33.4218 23.7475C33.9173 23.5483 34.4477 23.5197 34.9932 23.5054C35.5387 23.4911 36.1465 23.4863 36.8808 23.4863C37.3367 23.4863 37.7925 23.4863 38.2484 23.4911H39.3168C41.0656 23.4911 42.3426 24.3643 43.0098 26.0059C43.7611 27.8896 44.0829 29.5836 43.982 31.1975C43.8536 33.3272 43.3543 35.0412 42.4568 36.4406C41.8395 37.3939 40.8863 37.923 39.7009 37.9583C38.6967 37.9859 37.7935 38.0002 36.9554 38.0002Z" fill="#551BCC"/>
<path d="M38.1936 31.9307C38.055 31.9305 37.9178 31.8997 37.7897 31.8399C37.6617 31.7802 37.5454 31.6926 37.4475 31.5823C37.3495 31.472 37.2719 31.3411 37.2189 31.197C37.166 31.0529 37.1388 30.8986 37.1389 30.7427C37.1394 30.428 37.2507 30.1264 37.4486 29.9039C37.6464 29.6814 37.9147 29.5562 38.1945 29.5557C38.4746 29.5562 38.7431 29.6817 38.941 29.9046C39.1389 30.1275 39.25 30.4296 39.25 30.7446C39.2496 31.0592 39.1382 31.3607 38.9403 31.5831C38.7424 31.8054 38.4742 31.9304 38.1945 31.9307H38.1936Z" fill="#551BCC"/>
</svg>
